<?xml version="1.0" encoding="UTF-8" standalone="no" ?>
<!DOCTYPE svg PUBLIC "-//W3C//DTD SVG 1.1//EN" "http://www.w3.org/Graphics/SVG/1.1/DTD/svg11.dtd">
<svg xmlns="http://www.w3.org/2000/svg" xmlns:xlink="http://www.w3.org/1999/xlink" version="1.1" width="256.28515625" height="86.06432" xml:space="preserve">
<desc>Created with Fabric.js 1.6.0-rc.1</desc>
<defs></defs>
  <g transform="translate(65.44 43.66) scale(1.46 1.26)">
   <text font-family="ADAMCG PRO" font-size="40" font-weight="normal" style="stroke: none; stroke-width: 1; stroke-dasharray: none; stroke-linecap: butt; stroke-linejoin: miter; stroke-miterlimit: 10; fill: #2ec233; fill-rule: nonzero; opacity: 1;" ><tspan x="-12.81" y="8.98" style="stroke: none; stroke-width: 0; stroke-dasharray: none; stroke-linecap: butt; stroke-linejoin: miter; stroke-miterlimit: 4; fill: #2ec233; fill-rule: ; opacity: 1;">R</tspan></text>
 </g>
<g style="stroke: none; stroke-width: 1; stroke-dasharray: none; stroke-linecap: butt; stroke-linejoin: miter; stroke-miterlimit: 10; fill: none; fill-rule: nonzero; opacity: 1;" transform="translate(9.999999999999996 15.719999999999999) scale(0.28 0.36)" >
  <path d="M 152.18 0.002 c -1.88 0.035 -4.855 0.293 -5.732 0.373 c -1.17 0.107 -5.32 2.438 -6.383 3.182 c -1.064 0.744 -5.53 4.692 -6.7 5.862 s -3.61 4.56 -3.61 4.56 l -0.54 3.517 l -3.182 2.437 l -5.21 3.722 l -5.1 3.834 l -12.654 5.322 l -4.802 0.95 l -8.82 4.893 l -5.211 2.866 l -5.1 3.518 s -6.71 1.281 -7.666 1.6 c -0.957 0.32 -5.304 4.243 -5.304 4.243 l -2.345 -0.837 c -1.489 -0.532 -2.97 -0.224 -3.926 -0.224 c -0.957 0 -1.072 1.484 -1.284 2.122 c -0.213 0.638 0.218 5.86 0.111 6.923 c -0.106 1.063 0.95 2.66 0.95 2.66 l 3.833 1.378 s 6.917 -0.311 7.555 -0.205 c 0.638 0.107 1.8 -2.669 1.694 -3.2 c -0.106 -0.532 2.241 -2.768 2.773 -2.662 c 0.531 0.107 5.21 -3.182 5.21 -3.182 l 7.965 -2.457 s 3.307 1.388 3.945 1.6 c 0.639 0.214 5.528 5.007 5.528 5.007 l 1.265 4.038 s 0.109 3.408 0.428 3.834 c 0.319 0.425 2.978 0.632 2.978 0.632 l -0.112 1.061 l -2.438 2.345 l -5.099 3.926 l -11.594 7.668 s -2.344 -0.013 -3.089 -0.224 c -0.744 -0.212 -4.775 -0.202 -5.732 -0.52 c -0.957 -0.32 -7.138 0.834 -8.095 1.153 c -0.957 0.319 -3.711 0.867 -4.243 1.08 c -0.531 0.212 -7.773 3.296 -8.411 3.721 c -0.638 0.426 -4.669 3.28 -4.669 3.28 l -6.813 4.685 l -2.345 1.712 s -3.823 2.765 -4.355 2.978 c -0.532 0.213 -3.714 2.539 -4.67 3.07 c -0.958 0.532 -2.978 2.55 -2.978 2.55 s -2.124 1.704 -2.55 1.917 c -0.425 0.213 -3.2 2.456 -3.2 2.456 l -3.09 2.55 l -5.099 4.894 c -6.874 5.81 -8.763 8.847 -11.368 14.784 C 0.913 134.85 0.24 138.036 0.01 141.807 c -0.106 0.85 0.745 2.866 0.745 2.866 l 1.079 2.233 l 1.693 2.345 l 1.061 0.744 l 2.55 1.378 l 5.434 0.112 h 4.466 l 11.471 -3.092 l 10.539 -4.676 l 12.008 -6.487 s 13.513 -10.092 13.939 -10.198 c 0.425 -0.106 2.66 -2.661 2.66 -2.661 l 2.234 -1.712 l 3.722 -3.722 l 2.233 -2.643 l 3.499 -4.578 s 3.203 -3.719 3.629 -4.038 c 0.425 -0.32 2.233 -3.406 2.233 -3.406 s 3.504 -5.75 3.61 -6.494 c 0.106 -0.745 1.06 -4.89 1.06 -5.528 v -4.243 l 4.783 -4.69 l -0.204 5.956 l -0.317 6.923 l -3.629 5.303 l 0.112 3.63 l -0.112 3.386 l -0.52 3.517 l -3.723 2.773 l -4.69 3.722 s -3.394 4.132 -3.926 4.876 c -0.531 0.744 -0.75 3.416 -0.856 4.373 c -0.106 0.957 1.712 2.122 1.712 2.122 s 4.884 -0.205 5.416 -0.205 c 0.531 0 7.127 -1.173 7.127 -1.173 l 0.317 1.061 s -2.441 0.527 -2.866 0.633 c -0.426 0.106 -4.47 1.276 -4.895 1.489 c -0.425 0.212 -3.302 1.063 -3.833 1.488 c -0.532 0.426 -1.061 2.664 -1.061 3.09 c 0 0.425 1.494 2.541 1.6 3.498 c 0.107 0.957 1.157 1.492 1.582 1.917 c 0.426 0.426 4.895 1.917 4.895 1.917 l 0.111 0.112 l 3.517 0.949 l 0.745 2.14 l 1.265 2.643 s 1.71 2.142 2.029 2.568 c 0.319 0.425 3.61 1.265 3.61 1.265 l 5.21 0.745 s 6.695 -0.95 7.333 -0.95 c 0.638 0 8.3 -1.916 8.3 -1.916 c 4.464 -1.423 8.49 -3.717 12.45 -6.179 c 0 0 3.283 -1.908 4.665 -2.865 c 3.098 -1.913 4.638 -3.026 7.766 -4.895 c 0 0 5.428 -4.033 6.066 -4.67 c 0.638 -0.639 1.694 -1.806 1.694 -1.806 l 1.284 -1.06 l 2.55 -2.234 l 2.028 -1.823 l 3.815 -3.927 l 1.284 -1.805 l 2.01 -2.457 s 1.7 -1.911 2.233 -2.55 c 0.531 -0.637 1.6 -1.804 1.6 -1.804 l 1.805 -2.755 s 3.081 -7.555 4.039 -9.788 c 0.956 -2.233 0.016 -0.968 0.335 -1.712 c 0.319 -0.745 0.213 -2.326 0 -3.07 c -0.213 -0.745 -0.641 -1.822 -1.917 -3.63 c -1.276 -1.807 -1.822 -1.807 -3.63 -2.977 c -1.807 -1.17 -3.607 -1.375 -4.67 -1.694 c -1.063 -0.32 -8.821 1.061 -8.821 1.061 s 5.41 -2.127 6.048 -2.233 c 0.638 -0.106 5.639 -3.182 5.639 -3.182 s 7.765 -3.616 8.616 -3.722 c 0.851 -0.106 3.839 -1.598 4.69 -1.917 c 0.85 -0.32 7.012 -5.21 8.076 -5.955 c 1.063 -0.745 2.329 -2.342 2.754 -3.406 c 0.425 -1.063 4.05 -8.297 4.262 -9.36 c 0.213 -1.064 0.853 -3.292 1.172 -4.355 c 0.32 -1.063 0.95 -10.006 0.95 -11.389 c 0 -1.382 -0.1 -2.967 -0.205 -3.499 c -0.107 -0.531 -1.17 -6.276 -1.489 -7.127 c -0.32 -0.85 -6.165 -7.223 -7.016 -8.393 c -0.85 -1.17 -5.008 -4.801 -5.434 -5.545 c -0.425 -0.745 -8.398 -3.722 -9.249 -3.722 c -0.85 0 -3.833 0.65 -3.833 0.65 l 0.744 -0.967 l 3.313 -6.476 s -2.34 -2.031 -2.978 -2.456 c -0.638 -0.426 -4.474 -2.965 -5.006 -3.071 c -0.532 -0.106 -11.908 -2.132 -12.97 -2.345 c -0.267 -0.053 -0.77 -0.067 -1.397 -0.055 z m -17.847 33.256 l 0.744 1.21 l -0.298 2.865 l 2.103 1.191 l 0.298 1.508 l -2.4 0.595 l -12.04 7.686 l -7.054 4.801 l -8.43 7.37 l -1.21 -0.745 l -3.294 -1.21 l -2.717 -3.759 l -5.713 -5.713 l 9.175 -4.503 l 3.461 -2.27 l 7.816 -0.745 l 7.816 -3.164 l 6.625 -2.55 l 5.118 -2.567 z m 14.348 32.827 l -0.633 1.917 l -3.294 1.396 l -7.983 2.977 l -10.422 6.271 h -7.015 s -0.112 -2.552 -0.112 -2.977 l 12.543 -5.955 l 3.405 0.316 s 3.948 -0.755 4.374 -0.967 c 0.425 -0.213 9.137 -2.978 9.137 -2.978 z m -41.89 15.632 l -0.112 4.262 l -2.55 1.284 l 0.95 -4.69 l 1.712 -0.856 z m 16.376 1.824 l -2.028 4.987 l -1.49 0.633 l -0.743 -5.527 l 4.261 -0.093 z m -15.744 6.271 l 0.428 3.294 l -4.69 1.377 l 4.262 -4.67 z M 86.21 119.96 l -5.044 6.03 s -0.528 -3.546 0.15 -4.449 c 0.676 -0.902 5.12 -1.657 4.894 -1.581 z m 1.88 0.67 c 0.02 -0.013 0.074 0.167 0.074 0.167 l 0.67 1.508 s -0.38 1.87 -1.433 2.698 c -1.053 0.827 -3.369 0.819 -3.369 0.819 l 3.76 -5.025 c 0.225 0 0.297 0.151 0.297 -0.075 c 0 -0.056 -0.008 -0.088 0 -0.092 z" style="stroke: none; stroke-width: 1; stroke-dasharray: none; stroke-linecap: butt; stroke-linejoin: miter; stroke-miterlimit: 10; fill: #7adb36; fill-rule: nonzero; opacity: 1;" transform="" stroke-linecap="round" />
</g>
  <g transform="translate(163.14 47.41) scale(1 0.79)">
   <text font-family="ADAMCG PRO" font-size="40" font-weight="normal" style="stroke: none; stroke-width: 1; stroke-dasharray: none; stroke-linecap: butt; stroke-linejoin: miter; stroke-miterlimit: 10; fill: #000000; fill-rule: nonzero; opacity: 1;" ><tspan x="-83.64" y="8.98" style="stroke: none; stroke-width: 0; stroke-dasharray: none; stroke-linecap: butt; stroke-linejoin: miter; stroke-miterlimit: 4; fill: #000000; fill-rule: ; opacity: 1;">e</tspan><tspan x="-60.38" y="8.98" style="stroke: none; stroke-width: 0; stroke-dasharray: none; stroke-linecap: butt; stroke-linejoin: miter; stroke-miterlimit: 4; fill: #000000; fill-rule: ; opacity: 1;">-</tspan><tspan x="-41.71" y="8.98" style="stroke: none; stroke-width: 0; stroke-dasharray: none; stroke-linecap: butt; stroke-linejoin: miter; stroke-miterlimit: 4; fill: #000000; fill-rule: ; opacity: 1;">c</tspan><tspan x="-14.64" y="8.98" style="stroke: none; stroke-width: 0; stroke-dasharray: none; stroke-linecap: butt; stroke-linejoin: miter; stroke-miterlimit: 4; fill: #000000; fill-rule: ; opacity: 1;">y</tspan><tspan x="12.88" y="8.98" style="stroke: none; stroke-width: 0; stroke-dasharray: none; stroke-linecap: butt; stroke-linejoin: miter; stroke-miterlimit: 4; fill: #000000; fill-rule: ; opacity: 1;">c</tspan><tspan x="39.95" y="8.98" style="stroke: none; stroke-width: 0; stroke-dasharray: none; stroke-linecap: butt; stroke-linejoin: miter; stroke-miterlimit: 4; fill: #000000; fill-rule: ; opacity: 1;">l</tspan><tspan x="60.38" y="8.98" style="stroke: none; stroke-width: 0; stroke-dasharray: none; stroke-linecap: butt; stroke-linejoin: miter; stroke-miterlimit: 4; fill: #000000; fill-rule: ; opacity: 1;">e</tspan></text>
 </g>
</svg>